<svg width="202" height="312" viewBox="0 0 202 312" fill="none" xmlns="http://www.w3.org/2000/svg">
<path opacity="0.76" d="M117.217 316.052C115.53 351.376 102.221 341.007 75.8106 314.222C24.4817 296.156 -49.013 301.899 -126.529 342.405C-224.474 403.7 -200.492 402.489 -186.627 351.83C-204.023 297.41 -233.135 256.321 -245.422 227.936C-238.879 184.786 -190.122 136.433 -108.766 92.1017C-31.25 51.5964 26.6724 60.2869 61.6146 110.463C81.7556 179.49 99.814 261.639 117.217 316.052Z" stroke="black" stroke-width="4" stroke-linecap="round"/>
<path opacity="0.24" d="M126.765 284.165C126.894 315.137 113.152 317.58 85.2505 309.884C39.4127 307.498 -24.8294 320.923 -90.6713 355.923C-176.885 408.773 -193.459 418.948 -189.236 376.778C-202.697 332.475 -218.132 292.279 -217.873 258.382C-206.559 213.531 -163.107 166.331 -94.5626 128.644C-28.7207 93.6438 27.4074 97.1099 65.9022 132.578C92.8241 179.706 113.311 239.855 126.765 284.165Z" stroke="black" stroke-width="4" stroke-linecap="round"/>
<path opacity="0.35" d="M122.931 265.559C115.732 307.707 38.1949 314.51 -60.4131 363.771C-165.679 419.675 -184.927 429.656 -177.728 387.507C-203.965 311.923 -182.261 224.384 -76.9942 168.479C21.6137 119.218 96.6938 189.975 122.931 265.559Z" stroke="black" stroke-width="4" stroke-linecap="round"/>
<path opacity="0.29" d="M104.772 261.48C103.086 296.805 39.9892 323.885 -37.5266 364.39C-118.898 408.737 -153.782 419.639 -152.096 384.315C-169.499 329.888 -139.514 254.087 -58.1431 209.741C19.3726 169.236 87.3691 207.053 104.772 261.48Z" stroke="black" stroke-width="4" stroke-linecap="round"/>
<path opacity="0.77" d="M73.1587 270.668C74.4918 296.689 30.8951 328.007 -22.6461 356.874C-77.9527 387.493 -113.01 394.836 -114.343 368.815C-124.244 334.24 -95.9174 280.173 -40.6108 249.554C12.9303 220.687 63.2576 236.093 73.1587 270.668Z" stroke="black" stroke-width="4" stroke-linecap="round"/>
</svg>
