<svg width="518" height="518" viewBox="0 0 518 518" fill="none" xmlns="http://www.w3.org/2000/svg">
<path opacity="0.76" d="M433.785 315.319C432.099 350.643 418.789 340.273 392.379 313.488C341.05 295.423 267.556 301.166 190.04 341.671C92.0949 402.966 116.077 401.756 129.941 351.097C112.546 296.677 83.4332 255.588 71.1468 227.203C77.6899 184.053 126.446 135.7 207.803 91.3683C285.319 50.863 343.241 59.5535 378.183 109.729C398.324 178.756 416.383 260.906 433.785 315.319Z" stroke="black" stroke-width="4" stroke-linecap="round"/>
<path opacity="0.24" d="M443.333 283.432C443.463 314.404 429.721 316.846 401.819 309.15C355.981 306.765 291.739 320.19 225.897 355.19C139.684 408.039 123.11 418.214 127.333 376.044C113.872 331.741 98.4362 291.546 98.6957 257.649C110.009 212.798 153.462 165.598 222.006 127.91C287.848 92.9104 343.976 96.3766 382.471 131.845C409.393 178.973 429.88 239.122 443.333 283.432Z" stroke="black" stroke-width="4" stroke-linecap="round"/>
<path opacity="0.35" d="M439.5 264.826C432.301 306.974 354.763 313.777 256.156 363.037C150.889 418.942 131.642 428.922 138.841 386.774C112.603 311.19 134.308 223.65 239.574 167.745C338.182 118.485 413.262 189.241 439.5 264.826Z" stroke="black" stroke-width="4" stroke-linecap="round"/>
<path opacity="0.29" d="M421.34 260.747C419.654 296.071 356.558 323.152 279.042 363.657C197.671 408.003 162.786 418.906 164.473 383.582C147.07 329.154 177.054 253.354 258.425 209.007C335.941 168.502 403.938 206.32 421.34 260.747Z" stroke="black" stroke-width="4" stroke-linecap="round"/>
<path opacity="0.77" d="M389.727 269.935C391.06 295.956 347.464 327.274 293.923 356.141C238.616 386.76 203.558 394.103 202.225 368.082C192.324 333.507 220.651 279.44 275.958 248.821C329.499 219.954 379.826 235.36 389.727 269.935Z" stroke="black" stroke-width="4" stroke-linecap="round"/>
</svg>
