<svg width="254" height="396" viewBox="0 0 254 396" fill="none" xmlns="http://www.w3.org/2000/svg">
<path opacity="0.69" d="M219.131 5.05278C132.101 25.7628 27.2506 198.333 6.54064 367.533C-14.1794 423.713 57.1006 345.173 144.131 324.463C191.991 303.743 212.201 348.713 232.921 292.533C253.631 123.333 266.991 -15.6672 219.131 5.05278Z" stroke="black" stroke-width="4.5" stroke-linecap="round"/>
<path opacity="0.07" d="M211.631 72.2527C144.471 88.8127 63.6006 229.793 47.0406 360.033C30.4706 416.733 84.4706 379.863 151.631 363.303C193.611 346.733 218.881 356.733 235.451 300.033C252.011 169.793 253.611 55.6827 211.631 72.2527Z" stroke="black" stroke-width="4.5" stroke-linecap="round"/>
<path opacity="0.44" d="M204.131 143.743C155.711 156.163 98.1606 259.473 85.7406 352.533C73.3106 403.673 110.711 396.543 159.131 384.123C193.331 371.693 218.981 358.673 231.411 307.533C243.831 214.473 238.331 131.313 204.131 143.743Z" stroke="black" stroke-width="4.5" stroke-linecap="round"/>
<path opacity="0.37" d="M196.631 214.043C165.751 222.323 129.941 286.593 121.661 345.033C113.371 384.673 135.751 393.613 166.631 385.333C191.191 377.043 212.591 354.673 220.881 315.033C229.161 256.593 221.191 205.753 196.631 214.043Z" stroke="black" stroke-width="4.5" stroke-linecap="round"/>
</svg>
