<svg width="254" height="158" viewBox="0 0 254 158" fill="none" xmlns="http://www.w3.org/2000/svg">
<path opacity="0.69" d="M218.63 -233.21C131.6 -212.5 26.75 -39.93 6.04003 129.27C-14.68 185.45 56.6 106.91 143.63 86.2C191.49 65.48 211.7 110.45 232.42 54.27C253.13 -114.93 266.49 -253.93 218.63 -233.21Z" stroke="black" stroke-width="4.5" stroke-linecap="round"/>
<path opacity="0.07" d="M211.13 -166.01C143.97 -149.45 63.1 -8.46999 46.54 121.77C29.97 178.47 83.97 141.6 151.13 125.04C193.11 108.47 218.38 118.47 234.95 61.77C251.51 -68.47 253.11 -182.58 211.13 -166.01Z" stroke="black" stroke-width="4.5" stroke-linecap="round"/>
<path opacity="0.44" d="M203.63 -94.5199C155.21 -82.0999 97.66 21.2101 85.24 114.27C72.81 165.41 110.21 158.28 158.63 145.86C192.83 133.43 218.48 120.41 230.91 69.2701C243.33 -23.7899 237.83 -106.95 203.63 -94.5199Z" stroke="black" stroke-width="4.5" stroke-linecap="round"/>
<path opacity="0.37" d="M196.13 -24.22C165.25 -15.94 129.44 48.33 121.16 106.77C112.87 146.41 135.25 155.35 166.13 147.07C190.69 138.78 212.09 116.41 220.38 76.77C228.66 18.33 220.69 -32.51 196.13 -24.22Z" stroke="black" stroke-width="4.5" stroke-linecap="round"/>
</svg>
