<svg width="99" height="45" viewBox="0 0 99 45" fill="none" xmlns="http://www.w3.org/2000/svg">
<path d="M49.5403 0.199997L30.1483 45H19.9083L0.58025 0.199997H11.7803L25.4123 32.2L39.2363 0.199997H49.5403ZM53.2808 0.199997H73.6328C78.4968 0.199997 82.7848 1.13866 86.4968 3.016C90.2514 4.85066 93.1528 7.45333 95.2008 10.824C97.2914 14.1947 98.3368 18.12 98.3368 22.6C98.3368 27.08 97.2914 31.0053 95.2008 34.376C93.1528 37.7467 90.2514 40.3707 86.4968 42.248C82.7848 44.0827 78.4968 45 73.6328 45H53.2808V0.199997ZM73.1208 36.488C77.6008 36.488 81.1634 35.2507 83.8088 32.776C86.4968 30.2587 87.8408 26.8667 87.8408 22.6C87.8408 18.3333 86.4968 14.9627 83.8088 12.488C81.1634 9.97066 77.6008 8.712 73.1208 8.712H63.6488V36.488H73.1208Z" fill="black"/>
</svg>
